<?xml version="1.0" encoding="utf-8"?>
<!-- Generator: Adobe Illustrator 21.1.0, SVG Export Plug-In . SVG Version: 6.00 Build 0)  -->
<svg version="1.1" id="Layer_1" xmlns="http://www.w3.org/2000/svg" xmlns:xlink="http://www.w3.org/1999/xlink" x="0px" y="0px"
	 viewBox="0 0 141.4 169" style="enable-background:new 0 0 141.4 169;" xml:space="preserve">
<style type="text/css">
	.st0{clip-path:url(#SVGID_2_);}
	.st1{fill:#DFDFDF;}
	.st2{fill:#414042;}
</style>
<title>Asset 1</title>
<g>
	<defs>
		<rect id="SVGID_1_" x="-9" y="-7" width="159.4" height="176"/>
	</defs>
	<clipPath id="SVGID_2_">
		<use xlink:href="#SVGID_1_"  style="overflow:visible;"/>
	</clipPath>
	<g class="st0">
		<path class="st1" d="M70.7,141.4c39.1,0,70.7-31.7,70.7-70.7S109.8,0,70.7,0S0,31.7,0,70.7c0,0,0,0,0,0
			C0,109.8,31.7,141.4,70.7,141.4"/>
	</g>
</g>
<g>
	<path class="st2" d="M72.1,69.4C53.3,69.4,38,84.7,38,103.5c0,10.5,4.8,20.2,13.1,26.8c0.2,0.2,0.3,0.4,0.6,0.6
		c0.1,0,4.5,3,4.5,8.7c0,0.1,0.1,0.1,0.1,0.2c0,0.1-0.1,0.1,0,0.2l5.6,25.6c0.2,1,1.1,1.7,2.1,1.7h16.5c1,0,1.9-0.7,2.1-1.7
		l5.6-25.6c0-0.1-0.1-0.1-0.1-0.2c0-0.1,0.1-0.1,0.1-0.2c0-5.6,4.3-8.6,4.5-8.7c0.2-0.1,0.3-0.3,0.5-0.5
		c8.4-6.6,13.2-16.3,13.2-26.9C106.3,84.7,91,69.4,72.1,69.4z M78.7,163.1h-13l-0.5-2.1h13.9L78.7,163.1z M80.1,156.7H64.2l-0.5-2.1
		h16.8L80.1,156.7z M81.5,150.3H62.8l-1.9-8.5h22.4L81.5,150.3z M90.1,127.3c-0.2,0.1-0.3,0.3-0.5,0.5c-1.4,1.2-4.8,4.4-5.6,9.7
		h-9.7v-29.9c0-2.3,1.9-4.3,4.3-4.3c1.2,0,2.1-1,2.1-2.1c0-1.2-1-2.1-2.1-2.1c-2.6,0-4.8,1.2-6.4,3c-0.2-0.2-0.2-0.4-0.4-0.6
		c-1.6-1.6-3.7-2.5-6-2.5c0,0,0,0,0,0c-1.2,0-2.1,1-2.1,2.2c0,1.2,1,2.1,2.1,2.1c0,0,0,0,0,0c0,0,0,0,0,0c1.1,0,2.2,0.4,3,1.2
		c0.8,0.8,1.3,1.9,1.3,3v29.9h-9.7c-0.8-5.3-4.1-8.5-5.6-9.7c-0.1-0.2-0.3-0.3-0.5-0.5c-7.6-5.8-12-14.4-12-23.8
		c0-16.5,13.4-29.9,29.9-29.9c16.5,0,29.9,13.4,29.9,29.9C102,112.9,97.7,121.6,90.1,127.3z"/>
	<path class="st2" d="M72.9,61c1.2,0,2.1-1,2.1-2.1V44.5c0-1.2-1-2.1-2.1-2.1c-1.2,0-2.1,1-2.1,2.1v14.4C70.8,60.1,71.7,61,72.9,61z
		"/>
	<path class="st2" d="M40.9,73c0.4,0.4,1,0.6,1.5,0.6c0.6,0,1.1-0.2,1.5-0.6c0.8-0.8,0.8-2.2,0-3L33.7,59.8c-0.8-0.8-2.2-0.8-3,0
		c-0.8,0.8-0.8,2.2,0,3L40.9,73z"/>
	<path class="st2" d="M31.9,102c0-1.2-1-2.1-2.1-2.1H15.3c-1.2,0-2.1,1-2.1,2.1c0,1.2,1,2.1,2.1,2.1h14.4
		C30.9,104.2,31.9,103.2,31.9,102z"/>
	<path class="st2" d="M40.9,131l-10.2,10.2c-0.8,0.8-0.8,2.2,0,3c0.4,0.4,1,0.6,1.5,0.6c0.5,0,1.1-0.2,1.5-0.6l10.2-10.2
		c0.8-0.8,0.8-2.2,0-3C43.1,130.2,41.7,130.2,40.9,131z"/>
	<path class="st2" d="M104.9,132.9c-0.8-0.8-2.2-0.8-3,0c-0.8,0.8-0.8,2.2,0,3l10.2,10.2c0.4,0.4,1,0.6,1.5,0.6
		c0.5,0,1.1-0.2,1.5-0.6c0.8-0.8,0.8-2.2,0-3L104.9,132.9z"/>
	<path class="st2" d="M130.5,99.9l-14.4,0c-1.2,0-2.1,1-2.1,2.1c0,1.2,1,2.1,2.1,2.1l14.4,0c1.2,0,2.1-1,2.1-2.1
		C132.6,100.9,131.6,99.9,130.5,99.9z"/>
	<path class="st2" d="M103.4,73.7c0.5,0,1.1-0.2,1.5-0.6l10.2-10.2c0.8-0.8,0.8-2.2,0-3c-0.8-0.8-2.2-0.8-3,0L101.9,70
		c-0.8,0.8-0.8,2.2,0,3C102.3,73.4,102.9,73.7,103.4,73.7z"/>
</g>
</svg>
