<svg xmlns="http://www.w3.org/2000/svg" xmlns:xlink="http://www.w3.org/1999/xlink" viewBox="0 0 141.43 169"><defs><style>.cls-1{fill:none;}.cls-2{clip-path:url(#clip-path);}.cls-3{fill:#dfdfdf;}.cls-4{clip-path:url(#clip-path-2);}.cls-5{fill:#414042;}</style><clipPath id="clip-path" transform="translate(-9 -7)"><rect class="cls-1" width="159.43" height="175.99"/></clipPath><clipPath id="clip-path-2" transform="translate(-9 -7)"><rect class="cls-1" x="44.69" y="46.88" width="70.06" height="129.12"/></clipPath></defs><title>Asset 1</title><g id="Layer_2" data-name="Layer 2"><g id="Layer_1-2" data-name="Layer 1"><g class="cls-2"><path class="cls-3" d="M79.72,148.43A70.72,70.72,0,1,0,9,77.71a70.75,70.75,0,0,0,70.72,70.72" transform="translate(-9 -7)"/></g><g class="cls-4"><path class="cls-5" d="M79.72,70.26a2.27,2.27,0,0,0-2.23,2.3V88A2.23,2.23,0,1,0,82,88V72.56a2.26,2.26,0,0,0-2.23-2.3" transform="translate(-9 -7)"/><path class="cls-5" d="M82,54.89V49.17a2.24,2.24,0,1,0-4.47,0V54.9C59.23,56.13,44.69,72,44.7,91.5v47.68c0,20.3,15.7,36.81,35,36.81s35-16.51,35-36.82V91.5C114.74,72,100.21,56.14,82,54.89m28.32,84.28c0,17.78-13.7,32.24-30.56,32.24S49.16,157,49.16,139.17V91.51c0-17.79,13.71-32.26,30.56-32.27s30.56,14.47,30.56,32.27Z" transform="translate(-9 -7)"/></g></g></g></svg>