<?xml version="1.0" encoding="utf-8"?>
<!-- Generator: Adobe Illustrator 21.1.0, SVG Export Plug-In . SVG Version: 6.00 Build 0)  -->
<svg version="1.1" id="Layer_1" xmlns="http://www.w3.org/2000/svg" xmlns:xlink="http://www.w3.org/1999/xlink" x="0px" y="0px"
	 viewBox="0 0 141.4 169" style="enable-background:new 0 0 141.4 169;" xml:space="preserve">
<style type="text/css">
	.st0{clip-path:url(#SVGID_2_);}
	.st1{fill:#DFDFDF;}
	.st2{fill:#414042;}
</style>
<title>Asset 1</title>
<g>
	<defs>
		<rect id="SVGID_1_" x="-9" y="-7" width="159.4" height="176"/>
	</defs>
	<clipPath id="SVGID_2_">
		<use xlink:href="#SVGID_1_"  style="overflow:visible;"/>
	</clipPath>
	<g class="st0">
		<path class="st1" d="M70.7,141.4c39.1,0,70.7-31.7,70.7-70.7S109.8,0,70.7,0S0,31.7,0,70.7c0,0,0,0,0,0
			C0,109.8,31.7,141.4,70.7,141.4"/>
	</g>
</g>
<g>
	<path class="st2" d="M70.7,47.9C51.6,47.9,36,63.5,36,82.6c0,13.4,12.6,38.2,23.8,57.6c-12.8,2-21.2,7.4-21.2,13.9
		c0,8.5,13.8,14.8,32.1,14.8c18.3,0,32.1-6.4,32.1-14.8c0-6.5-8.4-11.9-21.1-13.9c11.2-19.5,23.8-44.3,23.8-57.6
		C105.5,63.5,89.9,47.9,70.7,47.9z M70.7,52.3c16.7,0,30.3,13.6,30.3,30.3c0,13.7-15.5,42.4-24.8,58.2c-2.2,3.8-4.2,7-5.5,9.1
		c-1.3-2.1-3.2-5.3-5.5-9.1C56,125,40.4,96.3,40.4,82.6C40.4,65.9,54,52.3,70.7,52.3z M98.4,154.2c0,4.9-11.4,10.4-27.6,10.4
		c-16.3,0-27.6-5.5-27.6-10.4c0-3.7,7.1-8.3,19.1-9.8c0.6,1,1.1,1.8,1.6,2.7c0.3,0.5,0.6,1,0.9,1.4c0.7,1.1,1.2,2,1.7,2.9
		c0.2,0.3,0.3,0.6,0.5,0.8c0.6,0.9,1,1.6,1.4,2.2c0,0,0.1,0.1,0.1,0.2c0.3,0.5,0.5,0.9,0.5,0.9l1.9,2.9l1.9-2.9c0,0,0.2-0.3,0.5-0.8
		c0.1-0.1,0.2-0.3,0.3-0.5c0.3-0.5,0.7-1.1,1.2-2c0.1-0.2,0.3-0.4,0.4-0.6c0.5-0.9,1.2-1.9,1.9-3.1c0.2-0.4,0.5-0.9,0.8-1.3
		c0.5-0.9,1-1.7,1.6-2.7C91.3,145.9,98.4,150.5,98.4,154.2z"/>
	<path class="st2" d="M92.5,82.6c0-12-9.8-21.7-21.7-21.7c-12,0-21.7,9.7-21.7,21.7c0,12,9.7,21.7,21.7,21.7
		C82.7,104.4,92.5,94.6,92.5,82.6z M53.4,82.6c0-9.5,7.8-17.3,17.3-17.3c9.5,0,17.3,7.8,17.3,17.3c0,9.5-7.8,17.3-17.3,17.3
		C61.2,99.9,53.4,92.2,53.4,82.6z"/>
</g>
</svg>
